<?xml version="1.0" encoding="UTF-8" standalone="no"?>
<svg width="47px" height="65px" viewBox="0 0 47 65" version="1.1" xmlns="http://www.w3.org/2000/svg" xmlns:xlink="http://www.w3.org/1999/xlink">
    <!-- Generator: Sketch 43.2 (39069) - http://www.bohemiancoding.com/sketch -->
    <title>Slice 1</title>
    <desc>Created with Sketch.</desc>
    <defs></defs>
    <g id="Page-1" stroke="none" stroke-width="1" fill="none" fill-rule="evenodd">
        <g id="Group">
            <path d="M34.255749,56.8462618 C33.736217,58.146948 33.2253515,59.2422462 32.7231373,60.1321894 C32.220923,61.0221326 31.6667638,61.7494791 31.0606431,62.3142507 C30.4545225,62.8790223 29.779141,63.2897592 29.0344784,63.5464735 C28.2898159,63.8031879 27.4326009,63.9315432 26.4628078,63.9315432 C25.9432758,63.9315432 25.4237516,63.8973151 24.9042196,63.8288579 C24.3846876,63.7604008 23.8824809,63.6406025 23.3975843,63.4694596 L23.3975843,59.4647354 C23.7785745,59.6358783 24.22017,59.7813476 24.7223843,59.9011476 C25.2245986,60.0209477 25.6488767,60.0808468 25.9952314,60.0808468 C26.8957535,60.0808468 27.6490636,59.8669214 28.2551843,59.4390641 C28.861305,59.0112068 29.320218,58.4036585 29.6319373,57.6164011 L31.4502902,53.1495933 L20.7999373,26.7594875 L25.7874196,26.7594875 L33.6323137,48.477415 L33.7362196,48.477415 L41.2693961,26.7594875 L45.9451608,26.7594875 L34.255749,56.8462618 Z" id="y" stroke="#000000"></path>
            <polygon id="x" fill="#000000" points="10.1856627 12.5974819 0.106792157 26.5626741 5.4579451 26.5626741 12.9391686 15.5753538 20.4203922 26.5626741 26.0832627 26.5626741 15.6926745 12.2380836 24.940298 0.01854039 19.641098 0.01854039 12.9391686 9.31155432 6.49700392 0.01854039 0.834133333 0.01854039"></polygon>
        </g>
    </g>
</svg>